<svg xmlns="http://www.w3.org/2000/svg" version="1.1" xmlns:xlink="http://www.w3.org/1999/xlink" xmlns:svgjs="http://svgjs.dev/svgjs" width="1000" height="1000" viewBox="0 0 1000 1000"><rect width="1000" height="1000" fill="#ffffff"></rect><g transform="matrix(0.7,0,0,0.7,149.57575886582407,424.3529504226209)"><svg viewBox="0 0 396 86" data-background-color="#ffffff" preserveAspectRatio="xMidYMid meet" height="217" width="1000" xmlns="http://www.w3.org/2000/svg" xmlns:xlink="http://www.w3.org/1999/xlink"><g id="tight-bounds" transform="matrix(1,0,0,1,0.23999932720727202,-0.1715190016155077)"><svg viewBox="0 0 395.52 86.34303763837637" height="86.34303763837637" width="395.52"><g><svg viewBox="0 0 395.52000000000004 86.34303763837639" height="86.34303763837637" width="395.52"><g><svg viewBox="0 0 395.52000000000004 86.34303763837639" height="86.34303763837639" width="395.52000000000004"><g id="textblocktransform"><svg viewBox="0 0 395.52000000000004 86.34303763837639" height="86.34303763837639" width="395.52000000000004" id="textblock"><g><svg viewBox="0 0 395.52000000000004 86.34303763837639" height="86.34303763837639" width="395.52000000000004"><g transform="matrix(1,0,0,1,0,0)"><svg width="395.52000000000004" viewBox="1.100000023841858 -35.45000076293945 165.38999938964844 36.11000061035156" height="86.34303763837639" data-palette-color="#ea9937"><path d="M1.1-33.62L1.1-34.3Q1.1-34.5 1.29-34.5L1.29-34.5 1.83-34.5 9.67-34.67Q11.08-34.72 12.74-34.72L12.74-34.72 15.8-34.72Q20.04-34.72 22.18-34.4 24.32-34.08 26.38-33.65 28.44-33.23 30.77-31.71 33.11-30.2 34.81-28.05L34.81-28.05Q38.43-23.46 38.43-18.14 38.43-12.82 35.64-8.59L35.64-8.59Q31.64-2.47 24.05-0.59L24.05-0.59Q21.63 0 19.09 0L19.09 0 1.29 0Q1.1 0 1.1-0.2L1.1-0.2 1.1-0.88Q1.1-1.07 1.29-1.07L1.29-1.07 1.83-1.07Q6.27-1.07 6.27-3.91L6.27-3.91 6.27-30.66Q6.27-32.03 5.22-32.73 4.17-33.42 2.86-33.42L2.86-33.42 1.29-33.42Q1.1-33.42 1.1-33.62L1.1-33.62ZM18.29-33.57L11.65-33.57Q11.04-33.57 11.04-32.91L11.04-32.91 11.04-3.05Q11.04-1.25 14.43-1.17L14.43-1.17Q15.43-1.15 16.53-1.15L16.53-1.15Q24.32-1.15 28.77-5.52 33.23-9.89 33.23-17.15 33.23-24.41 29.11-28.99 25-33.57 18.29-33.57L18.29-33.57ZM71.92-2.1Q69.8-0.81 67.28-0.07 64.77 0.66 62.81 0.66L62.81 0.66Q58.81 0.66 55.17-0.63L55.17-0.63Q50.19-2.44 47.17-5.98L47.17-5.98Q43.31-10.5 43.31-17.43L43.31-17.43Q43.31-22.44 45.87-26.55 48.44-30.66 52.96-33.06 57.49-35.45 62.71-35.45 67.92-35.45 72.04-33.13 76.17-30.81 78.66-26.76 81.15-22.71 81.15-17.98 81.15-13.26 78.68-9 76.22-4.74 71.92-2.1L71.92-2.1ZM48.44-18.21Q48.44-14.16 50.23-10.17 52.02-6.18 55.37-3.66 58.71-1.15 63.11-1.15L63.11-1.15Q69.36-1.15 72.85-5.93L72.85-5.93Q76-10.25 76-16.97 76-23.68 72.14-28.54L72.14-28.54Q70.26-30.91 67.54-32.34 64.82-33.76 62.05-33.76 59.27-33.76 57.5-33.15 55.73-32.54 54.29-31.48 52.85-30.42 51.76-28.96 50.66-27.49 49.92-25.78L49.92-25.78Q48.44-22.27 48.44-18.21ZM120.04-8.35L116.67-0.93Q116.55-0.73 116.07-0.84 115.6-0.95 114.96-0.95 114.33-0.95 113.17-0.7 112.01-0.44 109.52 0.11 107.03 0.66 104.98 0.66L104.98 0.66Q100.34 0.66 95.98-1.53 91.62-3.71 89.01-7.73 86.4-11.74 86.4-17.04 86.4-22.34 89.01-26.64L89.01-26.64Q92.82-32.93 100.48-34.84L100.48-34.84Q102.92-35.45 105.37-35.45L105.37-35.45Q108.71-35.45 113.3-34.33L113.3-34.33Q114.69-33.98 115.66-33.62 116.62-33.25 116.84-33.25L116.84-33.25 117.57-33.45 118.33-33.45Q118.62-33.45 118.62-33.03L118.62-33.03 118.62-25.44Q118.62-25.2 118.18-25.2 117.74-25.2 117.67-25.31 117.6-25.42 117.52-25.57 117.45-25.73 117.37-25.9 117.28-26.07 117.19-26.22 117.11-26.37 117.08-26.44L117.08-26.44Q113.42-33.79 105.98-33.79L105.98-33.79Q99.26-33.79 95.48-29.52 91.69-25.24 91.69-18.2 91.69-11.16 95.86-6.1 100.02-1.05 107.17-1.05L107.17-1.05Q111.08-1.05 114.29-3.37 117.5-5.69 119.33-9.06L119.33-9.06Q119.38-9.2 119.62-9.2L119.62-9.2 119.94-9.2Q120.19-9.2 120.19-8.91 120.19-8.62 120.04-8.35L120.04-8.35ZM139.1 0L124.5 0Q124.31 0 124.31-0.49L124.31-0.49 124.31-0.78Q124.31-0.98 124.55-0.98 124.8-0.98 125.27-1.12 125.75-1.27 125.99-1.32L125.99-1.32Q128.48-1.88 128.48-4.15L128.48-4.15 128.48-29.93Q128.48-32.18 127.65-32.8 126.82-33.42 124.65-33.42L124.65-33.42 123.55-33.42Q123.04-33.42 123.04-34.01L123.04-34.01Q123.04-34.35 123.36-34.42L123.36-34.42 123.53-34.42 137.22-34.79 139.69-34.79Q144.06-34.5 146.97-31.64 149.87-28.78 149.87-24.79 149.87-20.8 147.01-17.55L147.01-17.55Q145.77-16.11 144.21-15.22 142.64-14.33 141.13-14.31L141.13-14.31 133.81-14.6 133.61-14.6Q133.24-14.6 133.24-14.26L133.24-14.26 133.24-4.22Q133.24-2.88 133.98-2.25 134.71-1.61 137.08-1.25L137.08-1.25Q137.39-1.2 138.1-1.09 138.81-0.98 139.06-0.98 139.3-0.98 139.3-0.78L139.3-0.78 139.3-0.2Q139.3 0 139.1 0L139.1 0ZM135.22-33.56Q134.93-33.54 134.6-33.53 134.27-33.52 133.76-33.51 133.24-33.5 133.24-33.11L133.24-33.11 133.24-17.36 133.29-16.63Q133.37-16.11 133.76-16.09L133.76-16.09 136.25-15.94Q140.18-15.94 142.58-18.58 144.99-21.22 144.99-25.21 144.99-29.2 142.66-31.4 140.32-33.59 136.44-33.59L136.44-33.59Q136.1-33.59 135.81-33.58 135.51-33.57 135.22-33.56ZM157.78-4.47L157.78-30.52Q157.78-33.45 154.41-33.45L154.41-33.45Q153.87-33.45 153.87-33.64L153.87-33.64 153.87-34.23Q153.87-34.42 154.07-34.42L154.07-34.42 166.3-34.42Q166.49-34.42 166.49-34.23L166.49-34.23 166.49-33.64Q166.49-33.45 165.42-33.45 164.35-33.45 163.44-32.76 162.54-32.08 162.54-29.96L162.54-29.96 162.54-3.91Q162.54-0.98 165.93-0.98L165.93-0.98Q166.45-0.98 166.45-0.78L166.45-0.78 166.45-0.2Q166.45 0 166.25 0L166.25 0 154.02 0Q153.82 0 153.82-0.2L153.82-0.2 153.82-0.78Q153.82-0.98 154.9-0.98 155.97-0.98 156.87-1.66 157.78-2.34 157.78-4.47L157.78-4.47Z" opacity="1" transform="matrix(1,0,0,1,0,0)" fill="#ea9937" class="undefined-text-0" data-fill-palette-color="primary" id="text-0"></path></svg></g></svg></g></svg></g></svg></g><g></g></svg></g><defs></defs></svg><rect width="395.52" height="86.34303763837637" fill="none" stroke="none" visibility="hidden"></rect></g></svg></g></svg>