<svg xmlns="http://www.w3.org/2000/svg" xmlns:xlink="http://www.w3.org/1999/xlink" viewBox="0 0 1526.05 346.14"><defs><style>.cls-1{fill:#b2b2b2;}.cls-2{fill:url(#linear-gradient);}.cls-3{fill:url(#linear-gradient-2);}.cls-4{fill:url(#linear-gradient-3);}.cls-5{fill:url(#linear-gradient-4);}.cls-6{fill:url(#linear-gradient-5);}.cls-7{fill:url(#linear-gradient-6);}.cls-8{fill:url(#linear-gradient-7);}.cls-9{fill:url(#linear-gradient-8);}.cls-10{fill:#f26e21;}</style><linearGradient id="linear-gradient" x1="-6.01" y1="214.96" x2="400.92" y2="99.44" gradientUnits="userSpaceOnUse"><stop offset="0.14" stop-color="#f6921e"/><stop offset="0.78" stop-color="#ee4036"/></linearGradient><linearGradient id="linear-gradient-2" x1="-10.08" y1="200.62" x2="396.85" y2="85.1" xlink:href="#linear-gradient"/><linearGradient id="linear-gradient-3" x1="-6.3" y1="213.94" x2="400.64" y2="98.43" xlink:href="#linear-gradient"/><linearGradient id="linear-gradient-4" x1="-1.27" y1="231.65" x2="405.66" y2="116.13" xlink:href="#linear-gradient"/><linearGradient id="linear-gradient-5" x1="-1.56" y1="230.62" x2="405.37" y2="115.1" xlink:href="#linear-gradient"/><linearGradient id="linear-gradient-6" x1="-4.79" y1="219.24" x2="402.14" y2="103.72" xlink:href="#linear-gradient"/><linearGradient id="linear-gradient-7" x1="-2.76" y1="226.41" x2="404.18" y2="110.9" xlink:href="#linear-gradient"/><linearGradient id="linear-gradient-8" x1="7.12" y1="261.21" x2="414.05" y2="145.7" xlink:href="#linear-gradient"/></defs><title>Vaanara</title><g id="Layer_2" data-name="Layer 2"><g id="Layer_1-2" data-name="Layer 1"><rect class="cls-1" x="480.86" width="4.41" height="346.14"/><circle class="cls-2" cx="352.84" cy="113.09" r="12.54"/><circle class="cls-3" cx="277.54" cy="118.97" r="12.54"/><circle class="cls-4" cx="215.31" cy="151.04" r="12.54"/><circle class="cls-5" cx="114.85" cy="198.68" r="12.54"/><circle class="cls-6" cx="168.72" cy="182.28" r="12.54"/><circle class="cls-7" cx="61.33" cy="200.47" r="12.54"/><circle class="cls-8" cx="14.2" cy="221.6" r="12.54"/><path class="cls-9" d="M373.43,148.07c-49.19,0-54.21-12-108.42,24.09-9,7-16.06,14.06-32.12,24.1-26.1,18.07-72.28,39.15-106.41,39.15h-15c-9,0-16.07-2-29.12-2-27.1,0-53.2,11-69.26,28.11-4,4-12,14.05-13,20.07,6-2,7-14.05,31.12-26.1,36.14-20.07,66.25-7,92.35-7,43.17,0,92.36-21.08,125.48-45.18L265,190.23c14.06-14,48.19-35.13,71.28-35.13,30.11,0,43.16,2,72.27-9a22.77,22.77,0,0,0,4-1c3-2,2,0,3-4C407.56,144.06,385.48,148.07,373.43,148.07Z"/><path class="cls-10" d="M600.32,41.58q-5.13,0-7.42,5.13l-24.83,63.74L541,46.71c-1.52-3.51-4-5.26-7.41-5.26a9.24,9.24,0,0,0-5.4,2.09,7,7,0,0,0-2.83,6,11.16,11.16,0,0,0,.13,1.69,5.66,5.66,0,0,0,.54,1.69l33.32,78.23a8.15,8.15,0,0,0,3.1,3.71,8.71,8.71,0,0,0,4.18,1.42,8.91,8.91,0,0,0,4.52-1.29,8.3,8.3,0,0,0,3.44-4l33.32-78a9.21,9.21,0,0,0,.81-3.64,7.16,7.16,0,0,0-2.5-5.6A8.54,8.54,0,0,0,600.32,41.58Z"/><path class="cls-10" d="M693,129a9.07,9.07,0,0,0-.67-3.24l-33.18-79a8,8,0,0,0-3-4,8,8,0,0,0-4.52-1.42,7.13,7.13,0,0,0-4.79,1.22,8.81,8.81,0,0,0-3.3,4.18l-33.59,80.67a8.88,8.88,0,0,0-.4,2.56,7.34,7.34,0,0,0,1.75,5q1.75,2,5.4,2a7.13,7.13,0,0,0,4.25-1.41,8.46,8.46,0,0,0,2.9-4l7-16.46H671l7,16.32a9.61,9.61,0,0,0,3,4.05,7,7,0,0,0,4.38,1.48,7.52,7.52,0,0,0,5.19-2.16A7.44,7.44,0,0,0,693,129Zm-55.6-29.4L650.8,68l13.55,31.57Z"/><path class="cls-10" d="M777.74,135.47a7,7,0,0,0,4.38,1.48,7.56,7.56,0,0,0,5.2-2.16,7.47,7.47,0,0,0,2.36-5.8,9.1,9.1,0,0,0-.68-3.24l-33.18-79a8,8,0,0,0-7.55-5.4,7.12,7.12,0,0,0-4.79,1.22,8.83,8.83,0,0,0-3.31,4.18l-33.58,80.67a8.91,8.91,0,0,0-.41,2.56,7.35,7.35,0,0,0,1.76,5q1.74,2,5.39,2a7.11,7.11,0,0,0,4.25-1.41,8.4,8.4,0,0,0,2.9-4l7-16.46H767.7l7,16.32A9.6,9.6,0,0,0,777.74,135.47ZM734.07,99.59,747.5,68,761,99.59Z"/><path class="cls-10" d="M880.05,128.05V49.41a7.59,7.59,0,0,0-2-5.4,6.91,6.91,0,0,0-5.26-2.16,7.09,7.09,0,0,0-5.4,2.16,7.59,7.59,0,0,0-2,5.4v58l-49.1-62.63a5.65,5.65,0,0,0-3-2.22,11.22,11.22,0,0,0-3.91-.75,8.06,8.06,0,0,0-8.23,8.23v78.64a7.59,7.59,0,0,0,2,5.4,6.86,6.86,0,0,0,5.26,2.16,7.26,7.26,0,0,0,5.46-2.16,7.47,7.47,0,0,0,2.09-5.4V71.13L865.49,134a6.08,6.08,0,0,0,2.76,1.69,11.36,11.36,0,0,0,3.58.61,8.06,8.06,0,0,0,8.22-8.23Z"/><path class="cls-10" d="M975,129a9.07,9.07,0,0,0-.67-3.24l-33.19-79a8,8,0,0,0-7.55-5.4,7.13,7.13,0,0,0-4.79,1.22,8.81,8.81,0,0,0-3.3,4.18l-33.59,80.67a8.88,8.88,0,0,0-.4,2.56,7.34,7.34,0,0,0,1.75,5q1.76,2,5.4,2a7.1,7.1,0,0,0,4.24-1.41,8.33,8.33,0,0,0,2.9-4l7-16.46H953l7,16.32a9.61,9.61,0,0,0,3,4.05,7,7,0,0,0,4.38,1.48,7.52,7.52,0,0,0,5.19-2.16A7.44,7.44,0,0,0,975,129Zm-55.6-29.4L932.83,68l13.55,31.57Z"/><path class="cls-10" d="M1060.53,123.06a4.79,4.79,0,0,1-2.36-2.7,18.08,18.08,0,0,1-.81-4.32q-.19-2.55-.74-5.93a20.06,20.06,0,0,0-1.69-6.81,22.78,22.78,0,0,0-3.91-5.94,21.36,21.36,0,0,0-3.73-3.22,27.09,27.09,0,0,0,5.35-4.54,31.37,31.37,0,0,0,5.67-8.76,25.1,25.1,0,0,0,2.09-10,29.5,29.5,0,0,0-3.78-15,28.17,28.17,0,0,0-9.92-10.26,25,25,0,0,0-13.15-3.71H994.71a8.06,8.06,0,0,0-8.23,8.23v78a7.22,7.22,0,0,0,3,5.87,10.58,10.58,0,0,0,6.75,2.36,6.37,6.37,0,0,0,5.26-2.36,9.1,9.1,0,0,0,1.89-5.87V101.88h25.22a17.75,17.75,0,0,1,5.4.74,9.35,9.35,0,0,1,6.07,5.53,11,11,0,0,1,.81,4.25,38.8,38.8,0,0,0,1.41,11.47A19.9,19.9,0,0,0,1046,131a19.19,19.19,0,0,0,4.59,4,13.89,13.89,0,0,0,3.78,1.28,11.39,11.39,0,0,0,4.58,0,6.57,6.57,0,0,0,3.78-2.23,6.28,6.28,0,0,0,1.55-5.86A7.56,7.56,0,0,0,1060.53,123.06Zm-19.15-43.37a16.68,16.68,0,0,1-3.78,6.07,6.82,6.82,0,0,1-4.72,2.23h-29.54V57.37h29.54q3.64,0,6.81,4a15.41,15.41,0,0,1,3.17,9.91A23.18,23.18,0,0,1,1041.38,79.69Z"/><path class="cls-10" d="M1151.51,134.79a7.44,7.44,0,0,0,2.36-5.8,9.07,9.07,0,0,0-.67-3.24l-33.19-79a8,8,0,0,0-7.55-5.4,7.13,7.13,0,0,0-4.79,1.22,8.81,8.81,0,0,0-3.3,4.18l-33.59,80.67a8.88,8.88,0,0,0-.4,2.56,7.34,7.34,0,0,0,1.75,5q1.75,2,5.4,2a7.13,7.13,0,0,0,4.25-1.41,8.46,8.46,0,0,0,2.9-4l7-16.46h40.23l7,16.32a9.61,9.61,0,0,0,3,4.05,7,7,0,0,0,4.38,1.48A7.52,7.52,0,0,0,1151.51,134.79Zm-53.24-35.2L1111.69,68l13.55,31.57Z"/><path class="cls-10" d="M593.44,203.72H533.55a8.54,8.54,0,0,0-5.87,2.09,7.1,7.1,0,0,0-2.36,5.6,7.3,7.3,0,0,0,2.36,5.67,8.35,8.35,0,0,0,5.87,2.15h21.17v70.69a7.82,7.82,0,0,0,2.43,5.86,8.52,8.52,0,0,0,6.21,2.36,8.91,8.91,0,0,0,6.4-2.36,7.7,7.7,0,0,0,2.5-5.86V219.23h21.18a8.49,8.49,0,0,0,5.86-2.09,7.11,7.11,0,0,0,2.36-5.59,7.33,7.33,0,0,0-2.36-5.67A8.35,8.35,0,0,0,593.44,203.72Z"/><path class="cls-10" d="M669.24,219.23a8.49,8.49,0,0,0,5.87-2.09,7,7,0,0,0,2.36-5.46,7.52,7.52,0,0,0-2.36-5.73,8.2,8.2,0,0,0-5.87-2.23H624.05a8.06,8.06,0,0,0-8.22,8.23v78a8.06,8.06,0,0,0,8.22,8.22h45.19a8.35,8.35,0,0,0,5.87-2.15,7.18,7.18,0,0,0,2.36-5.53,7.54,7.54,0,0,0-2.36-5.47,8,8,0,0,0-5.87-2.36H632.69V257.68h30.48a8.54,8.54,0,0,0,5.87-2.09,7,7,0,0,0,2.36-5.47,7.55,7.55,0,0,0-2.36-5.73,8.23,8.23,0,0,0-5.87-2.22H632.69V219.23Z"/><path class="cls-10" d="M756.71,279.26a9.55,9.55,0,0,0-5.59.95,25.32,25.32,0,0,1-7,2.42,39.77,39.77,0,0,1-7.28.68,37.24,37.24,0,0,1-12.28-2,26.2,26.2,0,0,1-9.84-6,27.84,27.84,0,0,1-6.54-10.12,39.23,39.23,0,0,1-2.37-14.3,37.42,37.42,0,0,1,2.1-12.81A28.13,28.13,0,0,1,714,228.07a27.4,27.4,0,0,1,9.78-6.54,34.78,34.78,0,0,1,13-2.3,33.85,33.85,0,0,1,7.49.81,34.76,34.76,0,0,1,6.81,2.3,10.45,10.45,0,0,0,5.59,1.08,6.12,6.12,0,0,0,4.52-2.7,8.33,8.33,0,0,0,2-6.88,7.16,7.16,0,0,0-4.11-5.53,47.11,47.11,0,0,0-10.66-3.91,49.87,49.87,0,0,0-11.6-1.35,51.65,51.65,0,0,0-19.42,3.57,46.73,46.73,0,0,0-15.45,10,44.67,44.67,0,0,0-10.12,15.18,50.33,50.33,0,0,0-3.57,19.15A53,53,0,0,0,692.17,272a42.48,42.48,0,0,0,10.72,15.18,46.72,46.72,0,0,0,15.52,9.17,54.33,54.33,0,0,0,18.41,3.1,49,49,0,0,0,7.69-.6,54.8,54.8,0,0,0,7.48-1.76,46.72,46.72,0,0,0,7.22-2.9,7.09,7.09,0,0,0,4.11-5.19,8.12,8.12,0,0,0-2-7A7.05,7.05,0,0,0,756.71,279.26Z"/><path class="cls-10" d="M845.94,203.72a8.52,8.52,0,0,0-5.93,2.36,7.66,7.66,0,0,0-2.56,5.87v31h-43V212a7.74,7.74,0,0,0-2.5-5.87,8.1,8.1,0,0,0-5.73-2.36,8.56,8.56,0,0,0-6.21,2.36,7.89,7.89,0,0,0-2.42,5.87v78a8,8,0,0,0,8.36,8.22,8.45,8.45,0,0,0,5.93-2.36,7.63,7.63,0,0,0,2.57-5.86V258.49h43v31.43a7.73,7.73,0,0,0,2.49,5.86,8.09,8.09,0,0,0,5.73,2.36,8.48,8.48,0,0,0,6.28-2.36,8,8,0,0,0,2.36-5.86V212a8,8,0,0,0-8.37-8.23Z"/><path class="cls-10" d="M946.17,203.72a7.05,7.05,0,0,0-5.4,2.16,7.59,7.59,0,0,0-2,5.4v58l-49.1-62.63a5.72,5.72,0,0,0-3-2.23,11.43,11.43,0,0,0-3.91-.74,8.06,8.06,0,0,0-8.23,8.23v78.64a7.63,7.63,0,0,0,2,5.4,6.88,6.88,0,0,0,5.26,2.15,7.28,7.28,0,0,0,5.47-2.15,7.47,7.47,0,0,0,2.09-5.4V233l49.5,62.86a6.21,6.21,0,0,0,2.77,1.69,11.33,11.33,0,0,0,3.57.6,8.06,8.06,0,0,0,8.23-8.22V211.28a7.59,7.59,0,0,0-2-5.4A6.88,6.88,0,0,0,946.17,203.72Z"/><path class="cls-10" d="M1047.67,216.6a44.8,44.8,0,0,0-65.83,0,48.22,48.22,0,0,0-9.51,15.45,54.6,54.6,0,0,0,0,37.77,48.17,48.17,0,0,0,9.51,15.44,44.85,44.85,0,0,0,65.83,0,48.17,48.17,0,0,0,9.51-15.44,54.6,54.6,0,0,0,0-37.77A48.22,48.22,0,0,0,1047.67,216.6Zm-8.3,50.72a29.81,29.81,0,0,1-10,11.67,27.19,27.19,0,0,1-29.41,0,29.33,29.33,0,0,1-9.91-11.67,39.55,39.55,0,0,1,0-32.84,29.32,29.32,0,0,1,9.91-11.6,27.19,27.19,0,0,1,29.41,0,29.71,29.71,0,0,1,10,11.66,38.62,38.62,0,0,1,0,32.78Z"/><path class="cls-10" d="M1128.13,282.36h-35.21V212a7.77,7.77,0,0,0-2.49-5.87,8.14,8.14,0,0,0-5.74-2.36,8.55,8.55,0,0,0-6.2,2.36,7.86,7.86,0,0,0-2.43,5.87v78a8.06,8.06,0,0,0,8.23,8.22h43.84a8.25,8.25,0,0,0,5.87-2.22,7.39,7.39,0,0,0,2.36-5.6,7.52,7.52,0,0,0-2.36-5.73A8.21,8.21,0,0,0,1128.13,282.36Z"/><path class="cls-10" d="M1224.51,216.6a44.8,44.8,0,0,0-65.83,0,48.22,48.22,0,0,0-9.51,15.45,54.6,54.6,0,0,0,0,37.77,48.17,48.17,0,0,0,9.51,15.44,43.67,43.67,0,0,0,32.85,14.23,44.64,44.64,0,0,0,18.41-3.77,44.15,44.15,0,0,0,14.57-10.46,48.17,48.17,0,0,0,9.51-15.44,54.6,54.6,0,0,0,0-37.77A48.22,48.22,0,0,0,1224.51,216.6Zm-8.3,50.72a29.89,29.89,0,0,1-10,11.67,27.19,27.19,0,0,1-29.41,0,29.25,29.25,0,0,1-9.91-11.67,39.45,39.45,0,0,1,0-32.84,29.24,29.24,0,0,1,9.91-11.6,27.19,27.19,0,0,1,29.41,0,29.79,29.79,0,0,1,10,11.66,38.72,38.72,0,0,1,0,32.78Z"/><path class="cls-10" d="M1322.5,247.16h-22.12a8.08,8.08,0,0,0-5.87,2.29,8.31,8.31,0,0,0,0,11.6,8.08,8.08,0,0,0,5.87,2.29h12.68v17.47a38.09,38.09,0,0,1-6.75,1.69,54.32,54.32,0,0,1-8.9.81,30.13,30.13,0,0,1-16-4.39,32.37,32.37,0,0,1-11.47-11.8,33.08,33.08,0,0,1,0-32.44,32.67,32.67,0,0,1,11.47-11.74,30.21,30.21,0,0,1,16-4.38,37.89,37.89,0,0,1,8,.81,36.87,36.87,0,0,1,7.15,2.29,10.11,10.11,0,0,0,2.23.81,9.62,9.62,0,0,0,2.22.27,6.9,6.9,0,0,0,5.53-2.56,8.76,8.76,0,0,0,2.16-5.8,7.59,7.59,0,0,0-1-3.71,7.29,7.29,0,0,0-3-2.9,42.87,42.87,0,0,0-10.92-4.05,55.22,55.22,0,0,0-12.28-1.35,48.47,48.47,0,0,0-19.15,3.78,49.55,49.55,0,0,0-26.24,25.9,48.36,48.36,0,0,0,0,37.77,49.65,49.65,0,0,0,26.24,25.9,48.64,48.64,0,0,0,19.15,3.77,53.2,53.2,0,0,0,15.45-2.22,59,59,0,0,0,13.55-6,11.47,11.47,0,0,0,2.9-2.84,7.31,7.31,0,0,0,1.29-4.45v-28.6a8.08,8.08,0,0,0-2.3-5.86A7.72,7.72,0,0,0,1322.5,247.16Z"/><path class="cls-10" d="M1355.41,203.72a8.55,8.55,0,0,0-6.2,2.36,7.86,7.86,0,0,0-2.43,5.87v78a8,8,0,0,0,8.36,8.22,8.48,8.48,0,0,0,5.94-2.36,7.62,7.62,0,0,0,2.56-5.86V212a7.77,7.77,0,0,0-2.49-5.87A8.14,8.14,0,0,0,1355.41,203.72Z"/><path class="cls-10" d="M1437.29,219.23a8.51,8.51,0,0,0,5.87-2.09,7,7,0,0,0,2.36-5.46,7.52,7.52,0,0,0-2.36-5.73,8.21,8.21,0,0,0-5.87-2.23H1392.1a8.08,8.08,0,0,0-8.23,8.23v78a8.08,8.08,0,0,0,8.23,8.22h45.19a8.37,8.37,0,0,0,5.87-2.15,7.18,7.18,0,0,0,2.36-5.53,7.54,7.54,0,0,0-2.36-5.47,8,8,0,0,0-5.87-2.36h-36.56V257.68h30.49a8.56,8.56,0,0,0,5.87-2.09,7,7,0,0,0,2.36-5.47,7.55,7.55,0,0,0-2.36-5.73,8.25,8.25,0,0,0-5.87-2.22h-30.49V219.23Z"/><path class="cls-10" d="M1524,259.63a19.63,19.63,0,0,0-6.07-8,33.28,33.28,0,0,0-10.18-5.19,108.18,108.18,0,0,0-14.23-3.5,77.91,77.91,0,0,1-10.66-2.77,16,16,0,0,1-6.81-4.18,9.65,9.65,0,0,1-2.36-6.68,9.34,9.34,0,0,1,2-5.93,13.36,13.36,0,0,1,6-4,29.33,29.33,0,0,1,17.33-.34,52,52,0,0,1,7.69,2.84,24.38,24.38,0,0,1,5.8,3.57,5.9,5.9,0,0,0,3.64,1.21,7.22,7.22,0,0,0,5.4-2.42,7.73,7.73,0,0,0,2.29-5.4c0-2.7-1.31-5.08-3.91-7.15a38,38,0,0,0-12.21-6.68,48.81,48.81,0,0,0-16.26-2.63,43.31,43.31,0,0,0-17,3.24,28.33,28.33,0,0,0-12.21,9.44,24.78,24.78,0,0,0-4.52,15,27.56,27.56,0,0,0,1.89,10.45,22.31,22.31,0,0,0,5.6,8.09,29.87,29.87,0,0,0,9.24,5.67,56.92,56.92,0,0,0,12.81,3.3,56.61,56.61,0,0,1,12.68,3,18.38,18.38,0,0,1,7.42,4.79,10.2,10.2,0,0,1,2.43,6.87,8.39,8.39,0,0,1-2.56,6,18,18,0,0,1-6.75,4.18,26.26,26.26,0,0,1-9.17,1.55,31.8,31.8,0,0,1-12.48-2.16,42.74,42.74,0,0,1-10.18-6.34,7.15,7.15,0,0,0-4.59-1.62,7.33,7.33,0,0,0-5.59,2.37,7.69,7.69,0,0,0-2.23,5.46,8.31,8.31,0,0,0,.94,3.77,10.56,10.56,0,0,0,2.7,3.38,40.62,40.62,0,0,0,14.44,8.29,56.59,56.59,0,0,0,17,2.36,42.93,42.93,0,0,0,17.06-3.37,31.1,31.1,0,0,0,12.75-9.71,24.11,24.11,0,0,0,4.86-15.11A30,30,0,0,0,1524,259.63Z"/></g></g></svg>